<?xml version="1.0" encoding="utf-8"?>
<!-- Generator: Adobe Illustrator 24.0.1, SVG Export Plug-In . SVG Version: 6.00 Build 0)  -->
<svg version="1.1" id="Layer_1" xmlns="http://www.w3.org/2000/svg" xmlns:xlink="http://www.w3.org/1999/xlink" x="0px" y="0px"
	 viewBox="0 0 595.3 841.9" style="enable-background:new 0 0 595.3 841.9;" xml:space="preserve">
<style type="text/css">
	.st0{clip-path:url(#SVGID_2_);fill:#FFFFFF;}
	.st1{clip-path:url(#SVGID_4_);fill:#FFFFFF;}
	.st2{clip-path:url(#SVGID_6_);fill:#FFFFFF;}
	.st3{clip-path:url(#SVGID_8_);}
	.st4{clip-path:url(#SVGID_10_);}
	.st5{clip-path:url(#SVGID_12_);}
	.st6{clip-path:url(#SVGID_14_);}
	.st7{clip-path:url(#SVGID_16_);fill:#FAD030;}
	.st8{clip-path:url(#SVGID_18_);fill:none;stroke:#000000;stroke-width:20.2715;}
	.st9{clip-path:url(#SVGID_20_);}
	.st10{clip-path:url(#SVGID_22_);}
	.st11{clip-path:url(#SVGID_24_);}
	.st12{clip-path:url(#SVGID_26_);}
	.st13{clip-path:url(#SVGID_28_);fill:#FAD030;}
	.st14{clip-path:url(#SVGID_30_);fill:none;stroke:#000000;stroke-width:20.2715;}
	.st15{clip-path:url(#SVGID_32_);fill:#FFFFFF;}
	.st16{clip-path:url(#SVGID_34_);}
	.st17{clip-path:url(#SVGID_36_);}
	.st18{clip-path:url(#SVGID_38_);}
	.st19{clip-path:url(#SVGID_40_);}
	.st20{clip-path:url(#SVGID_42_);fill:#1C2120;}
	.st21{clip-path:url(#SVGID_44_);fill:#1C2120;}
	.st22{clip-path:url(#SVGID_46_);fill:#1C2120;}
	.st23{opacity:0.25;clip-path:url(#SVGID_48_);enable-background:new    ;}
	.st24{clip-path:url(#SVGID_50_);}
	.st25{opacity:0.56;clip-path:url(#SVGID_52_);fill:#A7A9AC;}
	.st26{opacity:0.26;clip-path:url(#SVGID_56_);fill:#808285;}
	.st27{font-family:'Arial-Black';}
	.st28{font-size:63px;}
	.st29{fill:none;stroke:#000000;stroke-width:0.5;}
	.st30{font-family:'ArialMT';}
	.st31{font-size:15px;}
	.st32{fill:#FFFFFF;stroke:#000000;stroke-miterlimit:10;}
	.st33{fill:none;stroke:#000000;stroke-miterlimit:10;}
	.st34{fill:#FFFFFF;stroke:#000000;}
	.st35{fill:none;stroke:#000000;}
	.st36{fill:none;}
	.st37{font-family:'TimesNewRomanPS-BoldMT';}
	.st38{font-size:25px;}
	.st39{font-size:18px;}
	.st40{letter-spacing:-1;}
	.st41{font-family:'TimesNewRomanPSMT';}
	.st42{fill:none;stroke:#58595B;stroke-miterlimit:10;}
	.st43{font-family:'TimesNewRomanPS-BoldItalicMT';}
	.st44{font-size:22.6975px;}
	.st45{fill-rule:evenodd;clip-rule:evenodd;fill:none;}
	.st46{fill:#EE1C4E;}
	.st47{font-family:'TimesNewRomanPS-ItalicMT';}
	.st48{font-size:13px;}
	.st49{fill:none;stroke:#000000;stroke-width:0.75;stroke-miterlimit:10;}
	.st50{fill:#FFFFFF;}
	.st51{font-family:'Arial-BoldMT';}
	.st52{font-size:20px;}
	.st53{font-size:16px;}
	.st54{fill:#E6E7E8;stroke:#BE1E2D;stroke-miterlimit:10;}
	.st55{fill:#ED2024;}
	.st56{font-size:22px;}
	.st57{clip-path:url(#SVGID_58_);}
	.st58{clip-path:url(#SVGID_60_);}
	.st59{clip-path:url(#SVGID_62_);}
</style>
<g>
	<defs>
		<rect id="SVGID_1_" x="-0.4" y="1" width="596" height="849.7"/>
	</defs>
	<clipPath id="SVGID_2_">
		<use xlink:href="#SVGID_1_"  style="overflow:visible;"/>
	</clipPath>
	<rect x="-0.4" y="1" class="st0" width="596" height="849.7"/>
</g>
<g>
	<defs>
		<rect id="SVGID_3_" x="-0.4" y="1" width="596" height="843"/>
	</defs>
	<clipPath id="SVGID_4_">
		<use xlink:href="#SVGID_3_"  style="overflow:visible;"/>
	</clipPath>
	<rect x="-0.4" y="1" class="st1" width="596" height="843"/>
</g>
<g>
	<defs>
		<rect id="SVGID_5_" x="-0.4" y="1" width="596" height="843"/>
	</defs>
	<clipPath id="SVGID_6_">
		<use xlink:href="#SVGID_5_"  style="overflow:visible;"/>
	</clipPath>
	<rect x="-0.4" y="1" class="st2" width="596" height="843"/>
</g>
<g>
	<defs>
		<rect id="SVGID_7_" x="-0.4" y="1" width="596" height="849.7"/>
	</defs>
	<clipPath id="SVGID_8_">
		<use xlink:href="#SVGID_7_"  style="overflow:visible;"/>
	</clipPath>
	<g class="st3">
		<defs>
			<rect id="SVGID_9_" x="-0.4" y="1" width="596" height="843"/>
		</defs>
		<clipPath id="SVGID_10_">
			<use xlink:href="#SVGID_9_"  style="overflow:visible;"/>
		</clipPath>
		<g class="st4">
			<defs>
				<rect id="SVGID_11_" x="-0.4" y="1" width="596" height="843"/>
			</defs>
			<clipPath id="SVGID_12_">
				<use xlink:href="#SVGID_11_"  style="overflow:visible;"/>
			</clipPath>
			<g class="st5">
				<defs>
					<rect id="SVGID_13_" x="-0.4" y="694.6" width="496.5" height="149.5"/>
				</defs>
				<clipPath id="SVGID_14_">
					<use xlink:href="#SVGID_13_"  style="overflow:visible;"/>
				</clipPath>
				<g class="st6">
					<defs>
						<polyline id="SVGID_15_" points="495.8,843.6 -0.4,843.6 -0.4,694.6 495.8,843.6 						"/>
					</defs>
					<clipPath id="SVGID_16_">
						<use xlink:href="#SVGID_15_"  style="overflow:visible;"/>
					</clipPath>
					<rect x="-0.4" y="694.6" class="st7" width="495.9" height="148.9"/>
				</g>
			</g>
		</g>
	</g>
</g>
<g>
	<defs>
		<rect id="SVGID_17_" x="-0.4" y="1" width="596" height="843"/>
	</defs>
	<clipPath id="SVGID_18_">
		<use xlink:href="#SVGID_17_"  style="overflow:visible;"/>
	</clipPath>
	<line class="st8" x1="-7.9" y1="666.2" x2="604.6" y2="852.7"/>
</g>
<g>
	<defs>
		<rect id="SVGID_19_" x="-0.4" y="1" width="596" height="849.7"/>
	</defs>
	<clipPath id="SVGID_20_">
		<use xlink:href="#SVGID_19_"  style="overflow:visible;"/>
	</clipPath>
	<g class="st9">
		<defs>
			<rect id="SVGID_21_" x="-0.4" y="1" width="596" height="843"/>
		</defs>
		<clipPath id="SVGID_22_">
			<use xlink:href="#SVGID_21_"  style="overflow:visible;"/>
		</clipPath>
		<g class="st10">
			<defs>
				<rect id="SVGID_23_" x="-0.4" y="1" width="596" height="843"/>
			</defs>
			<clipPath id="SVGID_24_">
				<use xlink:href="#SVGID_23_"  style="overflow:visible;"/>
			</clipPath>
			<g class="st11">
				<defs>
					<rect id="SVGID_25_" x="99.6" y="-1.5" width="496.5" height="149.5"/>
				</defs>
				<clipPath id="SVGID_26_">
					<use xlink:href="#SVGID_25_"  style="overflow:visible;"/>
				</clipPath>
				<g class="st12">
					<defs>
						<polyline id="SVGID_27_" points="100,-1 596.1,-1 596.1,148 100,-1 						"/>
					</defs>
					<clipPath id="SVGID_28_">
						<use xlink:href="#SVGID_27_"  style="overflow:visible;"/>
					</clipPath>
					<rect x="100.2" y="-0.9" class="st13" width="495.9" height="148.9"/>
				</g>
			</g>
		</g>
	</g>
</g>
<g>
	<defs>
		<rect id="SVGID_29_" x="-0.4" y="1" width="596" height="843"/>
	</defs>
	<clipPath id="SVGID_30_">
		<use xlink:href="#SVGID_29_"  style="overflow:visible;"/>
	</clipPath>
	<line class="st14" x1="603.7" y1="179.3" x2="-8.9" y2="-7.2"/>
</g>
<g>
	<defs>
		<rect id="SVGID_31_" x="25.2" y="30.3" width="544.8" height="780.6"/>
	</defs>
	<clipPath id="SVGID_32_">
		<use xlink:href="#SVGID_31_"  style="overflow:visible;"/>
	</clipPath>
	<rect x="25.2" y="30.3" class="st15" width="544.4" height="780.3"/>
</g>
<g>
	<defs>
		<rect id="SVGID_33_" x="-0.4" y="1" width="596" height="849.7"/>
	</defs>
	<clipPath id="SVGID_34_">
		<use xlink:href="#SVGID_33_"  style="overflow:visible;"/>
	</clipPath>
	<g class="st16">
		<defs>
			<rect id="SVGID_35_" x="-355.8" y="-7.7" width="596" height="843"/>
		</defs>
		<clipPath id="SVGID_36_">
			<use xlink:href="#SVGID_35_"  style="overflow:visible;"/>
		</clipPath>
		<g class="st17">
			<defs>
				<rect id="SVGID_37_" x="-355.8" y="-7.7" width="596" height="843"/>
			</defs>
			<clipPath id="SVGID_38_">
				<use xlink:href="#SVGID_37_"  style="overflow:visible;"/>
			</clipPath>
			<g class="st18">
				<defs>
					<rect id="SVGID_39_" x="-319.1" y="148.6" width="190.4" height="111.5"/>
				</defs>
				<clipPath id="SVGID_40_">
					<use xlink:href="#SVGID_39_"  style="overflow:visible;"/>
				</clipPath>
				<g class="st19">
					<defs>
						<polyline id="SVGID_41_" points="-318.9,260.1 -318.9,148.6 -128.7,148.6 -318.9,260.1 						"/>
					</defs>
					<clipPath id="SVGID_42_">
						<use xlink:href="#SVGID_41_"  style="overflow:visible;"/>
					</clipPath>
					<rect x="-318.8" y="148.6" class="st20" width="190.1" height="111.5"/>
				</g>
			</g>
		</g>
	</g>
</g>
<g>
	<defs>
		<rect id="SVGID_43_" x="-0.4" y="1" width="596" height="843"/>
	</defs>
	<clipPath id="SVGID_44_">
		<use xlink:href="#SVGID_43_"  style="overflow:visible;"/>
	</clipPath>
	<path class="st21" d="M-98.9,301.2l3,0c0.2,0,0.4,0.1,0.5,0.2s0.2,0.3,0.2,0.5s-0.1,0.4-0.2,0.5c-0.1,0.1-0.3,0.2-0.5,0.2l-3,0
		c-0.2,0-0.4-0.1-0.5-0.2c-0.1-0.1-0.2-0.3-0.2-0.5c0-0.2,0.1-0.4,0.2-0.5C-99.3,301.3-99.2,301.2-98.9,301.2z M-104.9,301.2l3,0
		c0.2,0,0.4,0.1,0.5,0.2s0.2,0.3,0.2,0.5c0,0.2-0.1,0.4-0.2,0.5c-0.1,0.1-0.3,0.2-0.5,0.2l-3,0c-0.2,0-0.4-0.1-0.5-0.2
		s-0.2-0.3-0.2-0.5c0-0.2,0.1-0.4,0.2-0.5C-105.3,301.3-105.2,301.2-104.9,301.2z M-110.9,301.3l3,0c0.2,0,0.4,0.1,0.5,0.2
		s0.2,0.3,0.2,0.5s-0.1,0.4-0.2,0.5c-0.1,0.1-0.3,0.2-0.5,0.2l-3,0c-0.2,0-0.4-0.1-0.5-0.2c-0.1-0.1-0.2-0.3-0.2-0.5
		c0-0.2,0.1-0.4,0.2-0.5S-111.2,301.3-110.9,301.3z M-117,301.3l3,0c0.2,0,0.4,0.1,0.5,0.2c0.1,0.1,0.2,0.3,0.2,0.5
		c0,0.2-0.1,0.4-0.2,0.5c-0.1,0.1-0.3,0.2-0.5,0.2l-3,0c-0.2,0-0.4-0.1-0.5-0.2c-0.1-0.1-0.2-0.3-0.2-0.5c0-0.2,0.1-0.4,0.2-0.5
		S-117.2,301.3-117,301.3z M-123,301.4l3,0c0.2,0,0.4,0.1,0.5,0.2c0.1,0.1,0.2,0.3,0.2,0.5c0,0.2-0.1,0.4-0.2,0.5
		c-0.1,0.1-0.3,0.2-0.5,0.2l-3,0c-0.2,0-0.4-0.1-0.5-0.2c-0.1-0.1-0.2-0.3-0.2-0.5c0-0.2,0.1-0.4,0.2-0.5
		C-123.3,301.5-123.2,301.4-123,301.4z M-129,301.4l3,0c0.2,0,0.4,0.1,0.5,0.2s0.2,0.3,0.2,0.5s-0.1,0.4-0.2,0.5
		c-0.1,0.1-0.3,0.2-0.5,0.2l-3,0c-0.2,0-0.4-0.1-0.5-0.2c-0.1-0.1-0.2-0.3-0.2-0.5s0.1-0.4,0.2-0.5
		C-129.3,301.5-129.2,301.4-129,301.4z M-135,301.5l3,0c0.2,0,0.4,0.1,0.5,0.2c0.1,0.1,0.2,0.3,0.2,0.5s-0.1,0.4-0.2,0.5
		c-0.1,0.1-0.3,0.2-0.5,0.2l-3,0c-0.2,0-0.4-0.1-0.5-0.2c-0.1-0.1-0.2-0.3-0.2-0.5c0-0.2,0.1-0.4,0.2-0.5
		C-135.3,301.6-135.2,301.5-135,301.5z M-141,301.6l3,0c0.2,0,0.4,0.1,0.5,0.2s0.2,0.3,0.2,0.5c0,0.2-0.1,0.4-0.2,0.5
		c-0.1,0.1-0.3,0.2-0.5,0.2l-3,0c-0.2,0-0.4-0.1-0.5-0.2c-0.1-0.1-0.2-0.3-0.2-0.5s0.1-0.4,0.2-0.5
		C-141.3,301.6-141.2,301.6-141,301.6z M-147,301.6l3,0c0.2,0,0.4,0.1,0.5,0.2c0.1,0.1,0.2,0.3,0.2,0.5c0,0.2-0.1,0.4-0.2,0.5
		c-0.1,0.1-0.3,0.2-0.5,0.2l-3,0c-0.2,0-0.4-0.1-0.5-0.2c-0.1-0.1-0.2-0.3-0.2-0.5c0-0.2,0.1-0.4,0.2-0.5S-147.2,301.6-147,301.6z
		 M-153,301.7l3,0c0.2,0,0.4,0.1,0.5,0.2c0.1,0.1,0.2,0.3,0.2,0.5c0,0.2-0.1,0.4-0.2,0.5c-0.1,0.1-0.3,0.2-0.5,0.2l-3,0
		c-0.2,0-0.4-0.1-0.5-0.2c-0.1-0.1-0.2-0.3-0.2-0.5s0.1-0.4,0.2-0.5C-153.4,301.7-153.2,301.7-153,301.7z M-159,301.7l3,0
		c0.2,0,0.4,0.1,0.5,0.2c0.1,0.1,0.2,0.3,0.2,0.5s-0.1,0.4-0.2,0.5c-0.1,0.1-0.3,0.2-0.5,0.2l-3,0c-0.2,0-0.4-0.1-0.5-0.2
		c-0.1-0.1-0.2-0.3-0.2-0.5s0.1-0.4,0.2-0.5C-159.4,301.8-159.2,301.7-159,301.7z M-165,301.8l3,0c0.2,0,0.4,0.1,0.5,0.2
		c0.1,0.1,0.2,0.3,0.2,0.5s-0.1,0.4-0.2,0.5c-0.1,0.1-0.3,0.2-0.5,0.2l-3,0c-0.2,0-0.4-0.1-0.5-0.2c-0.1-0.1-0.2-0.3-0.2-0.5
		c0-0.2,0.1-0.4,0.2-0.5C-165.4,301.8-165.2,301.8-165,301.8z M-171,301.8l3,0c0.2,0,0.4,0.1,0.5,0.2c0.1,0.1,0.2,0.3,0.2,0.5
		c0,0.2-0.1,0.4-0.2,0.5c-0.1,0.1-0.3,0.2-0.5,0.2l-3,0c-0.2,0-0.4-0.1-0.5-0.2c-0.1-0.1-0.2-0.3-0.2-0.5s0.1-0.4,0.2-0.5
		C-171.4,301.9-171.2,301.8-171,301.8z M-177,301.9l3,0c0.2,0,0.4,0.1,0.5,0.2c0.1,0.1,0.2,0.3,0.2,0.5c0,0.2-0.1,0.4-0.2,0.5
		c-0.1,0.1-0.3,0.2-0.5,0.2l-3,0c-0.2,0-0.4-0.1-0.5-0.2s-0.2-0.3-0.2-0.5s0.1-0.4,0.2-0.5C-177.4,302-177.2,301.9-177,301.9z
		 M-183,301.9l3,0c0.2,0,0.4,0.1,0.5,0.2s0.2,0.3,0.2,0.5c0,0.2-0.1,0.4-0.2,0.5c-0.1,0.1-0.3,0.2-0.5,0.2l-3,0
		c-0.2,0-0.4-0.1-0.5-0.2c-0.1-0.1-0.2-0.3-0.2-0.5s0.1-0.4,0.2-0.5C-183.4,302-183.2,301.9-183,301.9z M-189,302l3,0
		c0.2,0,0.4,0.1,0.5,0.2c0.1,0.1,0.2,0.3,0.2,0.5s-0.1,0.4-0.2,0.5c-0.1,0.1-0.3,0.2-0.5,0.2l-3,0c-0.2,0-0.4-0.1-0.5-0.2
		c-0.1-0.1-0.2-0.3-0.2-0.5c0-0.2,0.1-0.4,0.2-0.5C-189.4,302.1-189.2,302-189,302z M-195,302l3,0c0.2,0,0.4,0.1,0.5,0.2
		s0.2,0.3,0.2,0.5s-0.1,0.4-0.2,0.5c-0.1,0.1-0.3,0.2-0.5,0.2l-3,0c-0.2,0-0.4-0.1-0.5-0.2c-0.1-0.1-0.2-0.3-0.2-0.5
		s0.1-0.4,0.2-0.5C-195.4,302.1-195.2,302-195,302z M-201,302.1l3,0c0.2,0,0.4,0.1,0.5,0.2c0.1,0.1,0.2,0.3,0.2,0.5
		c0,0.2-0.1,0.4-0.2,0.5s-0.3,0.2-0.5,0.2l-3,0c-0.2,0-0.4-0.1-0.5-0.2c-0.1-0.1-0.2-0.3-0.2-0.5s0.1-0.4,0.2-0.5
		C-201.4,302.2-201.2,302.1-201,302.1z M-207,302.1l3,0c0.2,0,0.4,0.1,0.5,0.2c0.1,0.1,0.2,0.3,0.2,0.5s-0.1,0.4-0.2,0.5
		c-0.1,0.1-0.3,0.2-0.5,0.2l-3,0c-0.2,0-0.4-0.1-0.5-0.2s-0.2-0.3-0.2-0.5s0.1-0.4,0.2-0.5C-207.4,302.2-207.2,302.2-207,302.1z
		 M-213,302.2l3,0c0.2,0,0.4,0.1,0.5,0.2c0.1,0.1,0.2,0.3,0.2,0.5s-0.1,0.4-0.2,0.5c-0.1,0.1-0.3,0.2-0.5,0.2l-3,0
		c-0.2,0-0.4-0.1-0.5-0.2s-0.2-0.3-0.2-0.5s0.1-0.4,0.2-0.5C-213.4,302.3-213.2,302.2-213,302.2z M-219,302.3l3,0
		c0.2,0,0.4,0.1,0.5,0.2c0.1,0.1,0.2,0.3,0.2,0.5s-0.1,0.4-0.2,0.5c-0.1,0.1-0.3,0.2-0.5,0.2l-3,0c-0.2,0-0.4-0.1-0.5-0.2
		s-0.2-0.3-0.2-0.5s0.1-0.4,0.2-0.5C-219.4,302.3-219.2,302.3-219,302.3z"/>
</g>
<g>
	<defs>
		<rect id="SVGID_45_" x="36.1" y="310.4" width="534" height="32.6"/>
	</defs>
	<clipPath id="SVGID_46_">
		<use xlink:href="#SVGID_45_"  style="overflow:visible;"/>
	</clipPath>
	<rect x="36.1" y="310.4" class="st22" width="533.5" height="31.7"/>
</g>
<g>
	<defs>
		<rect id="SVGID_47_" x="-0.4" y="1" width="596" height="843"/>
	</defs>
	<clipPath id="SVGID_48_">
		<use xlink:href="#SVGID_47_"  style="overflow:visible;"/>
	</clipPath>
	<g class="st23">
		<g>
			<defs>
				<rect id="SVGID_49_" x="36.1" y="343" width="534" height="217.6"/>
			</defs>
			<use xlink:href="#SVGID_49_"  style="overflow:visible;fill:#A7A9AC;"/>
			<clipPath id="SVGID_50_">
				<use xlink:href="#SVGID_49_"  style="overflow:visible;"/>
			</clipPath>
			<g class="st24">
				<defs>
					<rect id="SVGID_51_" x="36.2" y="343.2" width="531.7" height="215.4"/>
				</defs>
				<use xlink:href="#SVGID_51_"  style="overflow:visible;fill-rule:evenodd;clip-rule:evenodd;fill:#A7A9AC;"/>
				<clipPath id="SVGID_52_">
					<use xlink:href="#SVGID_51_"  style="overflow:visible;"/>
				</clipPath>
				<rect x="36.2" y="343.2" class="st25" width="531.2" height="215.2"/>
			</g>
		</g>
	</g>
</g>
<g>
	<defs>
		<rect id="SVGID_53_" x="67.4" y="37.4" width="120.1" height="114.8"/>
	</defs>
	<clipPath id="SVGID_54_">
		<use xlink:href="#SVGID_53_"  style="overflow:visible;"/>
	</clipPath>
</g>
<g>
	<defs>
		<rect id="SVGID_55_" x="25.2" y="703" width="545.3" height="84.9"/>
	</defs>
	<clipPath id="SVGID_56_">
		<use xlink:href="#SVGID_55_"  style="overflow:visible;"/>
	</clipPath>
	<rect x="25.2" y="703" class="st26" width="546.2" height="84.9"/>
</g>
<text transform="matrix(1 0 0 1 247.153 114.7184)" class="st27 st28">INVOICE</text>
<g>
	<rect x="37.2" y="342.8" class="st29" width="531.8" height="47.3"/>
	<rect x="37.2" y="390.2" class="st29" width="531.8" height="47.3"/>
	<rect x="37.2" y="437.6" class="st29" width="531.8" height="47.3"/>
	<rect x="37.2" y="485.1" class="st29" width="531.8" height="47.3"/>
</g>
<g>
	<rect x="68.8" y="261.8" class="st29" width="137.5" height="32.2"/>
	<line class="st29" x1="68.8" y1="277.9" x2="206.3" y2="277.9"/>
	<text transform="matrix(0.9258 0 0 1 73.5072 275.2642)" class="st30 st31">Invoice No:</text>
	<text transform="matrix(0.9258 0 0 1 73.5072 291.7476)" class="st30 st31">Date:</text>
</g>
<g>
	<g>
		<rect x="226.3" y="158.5" class="st32" width="343.8" height="134.5"/>
		<line class="st33" x1="398.2" y1="293.5" x2="398.2" y2="158.3"/>
		<g>
			<rect x="226.3" y="158.5" class="st34" width="343.8" height="22.3"/>
			<line class="st35" x1="398.2" y1="180.9" x2="398.2" y2="158.5"/>
		</g>
	</g>
	<rect x="402.2" y="161.6" class="st36" width="53.7" height="20.4"/>
	<text transform="matrix(1 0 0 1 402.1649 178.1617)" class="st37 st38">To</text>
	<rect x="228.9" y="161.6" class="st36" width="63.3" height="20.4"/>
	<text transform="matrix(1 0 0 1 228.8726 178.1617)" class="st37 st38">From</text>
	<g>
		<g>
			<path d="M230.9,193.7v-0.6h2.1v0.8h-0.2L230.9,193.7z M233,202.3v0.8h-2.1v-0.6l2-0.2H233z M232.3,197.7c0-1.5,0-3.1,0-4.6h1.5
				c0,1.5,0,3.1,0,4.6v0.6c0,1.7,0,3.3,0,4.8h-1.5c0-1.5,0-3.1,0-4.6V197.7z M237.2,193.1l0.7,0.8H233v-0.8h5.3l0.1,2.7h-0.9
				L237.2,193.1z M236.4,198.3H233v-0.7h3.4V198.3z M238.8,200.5l-0.1,2.7H233v-0.8h5.1l-0.7,0.8l0.5-2.7H238.8z M235.9,197.8
				l0.2-1.6h0.7v3.5h-0.7l-0.2-1.7V197.8z"/>
			<path d="M239.4,202.5l1.6-0.2h0.3l1.5,0.2v0.6h-3.4V202.5z M239.6,193.1h4.2v0.6l-2,0.2h-0.3l-1.9-0.2V193.1z M243.8,197.8
				l0.5,0.4l-3.1,4.9h-0.9L243.8,197.8z M240.4,193.1h1.6l6,10h-1.6L240.4,193.1z M246.9,193.1h0.9l-3.4,5.3l-0.5-0.4L246.9,193.1z
				 M244.6,202.5l2-0.2h0.3l2,0.2v0.6h-4.2V202.5z M245.1,193.1h3.4v0.6l-1.6,0.2h-0.3l-1.5-0.2V193.1z"/>
			<path d="M249.7,193.7v-0.6h2.1v0.8h-0.2L249.7,193.7z M252,202.3l2,0.2v0.6h-4.2v-0.6l2-0.2H252z M251.1,197.7c0-1.5,0-3.1,0-4.6
				h1.5c0,1.5,0,3.1,0,4.6v0.9c0,1.5,0,2.9,0,4.5H251c0-1.5,0-3.1,0-4.6V197.7z M253.3,199.2h-1.5v-0.7h1.7c1.8,0,2.5-1,2.5-2.4
				c0-1.5-0.8-2.3-2.6-2.3h-1.6v-0.7h1.9c2.5,0,3.8,1.2,3.8,3C257.5,197.7,256.4,199.2,253.3,199.2z"/>
			<path d="M258.5,193.7v-0.6h2.1v0.8h-0.2L258.5,193.7z M260.6,202.3v0.8h-2.1v-0.6l2-0.2H260.6z M259.9,197.7c0-1.5,0-3.1,0-4.6
				h1.5c0,1.5,0,3.1,0,4.6v0.6c0,1.7,0,3.3,0,4.8h-1.5c0-1.5,0-3.1,0-4.6V197.7z M264.8,193.1l0.7,0.8h-4.8v-0.8h5.3l0.1,2.7h-0.9
				L264.8,193.1z M264,198.3h-3.4v-0.7h3.4V198.3z M266.4,200.5l-0.1,2.7h-5.6v-0.8h5.1l-0.7,0.8l0.5-2.7H266.4z M263.5,197.8
				l0.2-1.6h0.7v3.5h-0.7l-0.2-1.7V197.8z"/>
			<path d="M267.6,193.7v-0.6h2.1v0.8h-0.2L267.6,193.7z M269.8,202.3l2,0.2v0.6h-4.2v-0.6l2-0.2H269.8z M269,197.7
				c0-1.5,0-3.1,0-4.6h1.5c0,1.6,0,3,0,4.8v0.5c0,1.7,0,3.2,0,4.8h-1.5c0-1.5,0-3.1,0-4.6V197.7z M269.7,197.8h1.9
				c1.6,0,2.4-0.9,2.4-2.1c0-1.3-0.7-1.9-2.2-1.9h-2v-0.7h2.1c2.3,0,3.6,1,3.6,2.6c0,1.3-1,2.4-3,2.6l0-0.1c1.2,0.1,1.8,0.6,2.2,2
				l0.7,2.5l-0.5-0.3l1.6,0.2v0.6c-0.3,0.1-0.6,0.2-1.1,0.2c-0.9,0-1.4-0.2-1.6-1l-0.6-2.4c-0.3-1.2-0.8-1.4-2.1-1.4h-1.4V197.8z"/>
			<path d="M277.6,193.8l0.7-0.8l-0.5,2.7H277l0.1-2.7h8.2l0.1,2.7h-0.9l-0.5-2.7l0.7,0.8H277.6z M281.4,202.3l2.1,0.2v0.6h-4.5
				v-0.6l2.1-0.2H281.4z M280.5,197.7c0-1.5,0-3.1,0-4.6h1.5c0,1.5,0,3.1,0,4.6v0.7c0,1.5,0,3.1,0,4.7h-1.5c0-1.5,0-3.1,0-4.6V197.7
				z"/>
			<path d="M295,200.8c0-1-0.6-1.4-1.9-1.9l-0.6-0.2c-1.5-0.6-2.6-1.5-2.6-3c0-1.7,1.5-2.8,3.4-2.8c1,0,1.8,0.3,2.5,0.8l-0.1,2h-0.9
				l-0.4-2.3l1,0.5v0.8c-0.7-0.7-1.3-1-2.1-1c-1.2,0-2,0.6-2,1.7c0,0.9,0.6,1.5,1.7,1.9l0.6,0.2c2,0.8,2.7,1.6,2.7,3.1
				c0,1.8-1.5,2.9-3.6,2.9c-1.1,0-2.2-0.4-2.9-0.8l0.1-2.1h0.9l0.4,2.3l-1-0.4v-0.7c0.9,0.7,1.4,1,2.5,1
				C294.1,202.6,295,201.9,295,200.8z"/>
			<path d="M306.8,198.1c0,3.3-2.3,5.2-4.6,5.2c-2.3,0-4.6-1.8-4.6-5.2c0-3.3,2.3-5.2,4.6-5.2S306.8,194.7,306.8,198.1z
				 M302.2,202.6c2.1,0,2.9-2.2,2.9-4.5c0-2.3-0.9-4.5-2.9-4.5s-3,2.2-3,4.5C299.2,200.4,300.1,202.6,302.2,202.6z"/>
			<path d="M308.2,193.7v-0.6h4.2v0.6l-2,0.2h-0.3L308.2,193.7z M310.3,202.3v0.8h-2.1v-0.6l2-0.2H310.3z M309.5,193.1h1.5
				c0,1.5,0,3.1,0,4.6v1c0,1.3,0,2.8,0,4.4h-1.5c0-1.5,0-3.1,0-4.6v-0.8C309.6,196.2,309.6,194.6,309.5,193.1z M315.8,200.3
				l-0.2,2.8h-5.4v-0.8h4.8l-0.8,0.8l0.6-2.8H315.8z"/>
			<path d="M317,193.7v-0.6h4.2v0.6l-2,0.2H319L317,193.7z M322.2,202.3c1.7,0,2.6-1,2.6-3.6v-5.6h0.8v5.9c0,3.2-1.5,4.3-3.6,4.3
				c-2.2,0-3.7-1.2-3.7-4v-1.6c0-1.5,0-3.1,0-4.6h1.5c0,1.5,0,3.1,0,4.6v1.2C319.7,201.5,320.7,202.3,322.2,202.3z M324.9,193.9
				l-1.6-0.2v-0.6h3.6v0.6l-1.6,0.2H324.9z"/>
			<path d="M328.3,193.8l0.7-0.8l-0.5,2.7h-0.9l0.1-2.7h8.2l0.1,2.7h-0.9l-0.5-2.7l0.7,0.8H328.3z M332,202.3l2.1,0.2v0.6h-4.5v-0.6
				l2.1-0.2H332z M331.2,197.7c0-1.5,0-3.1,0-4.6h1.5c0,1.5,0,3.1,0,4.6v0.7c0,1.5,0,3.1,0,4.7h-1.5c0-1.5,0-3.1,0-4.6V197.7z"/>
			<path d="M337.1,193.7v-0.6h4.2v0.6l-2,0.2H339L337.1,193.7z M339.3,202.3l2,0.2v0.6h-4.2v-0.6l2-0.2H339.3z M338.5,197.7
				c0-1.5,0-3.1,0-4.6h1.5c0,1.5,0,3.1,0,4.6v0.7c0,1.5,0,3.1,0,4.7h-1.5c0-1.5,0-3.1,0-4.6V197.7z"/>
			<path d="M351.9,198.1c0,3.3-2.3,5.2-4.6,5.2c-2.3,0-4.6-1.8-4.6-5.2c0-3.3,2.3-5.2,4.6-5.2C349.6,192.8,351.9,194.7,351.9,198.1z
				 M347.3,202.6c2.1,0,2.9-2.2,2.9-4.5c0-2.3-0.9-4.5-2.9-4.5c-2.1,0-3,2.2-3,4.5C344.3,200.4,345.2,202.6,347.3,202.6z"/>
			<path d="M353.2,202.5l1.6-0.2h0.3l1.7,0.2v0.6h-3.6V202.5z M354.1,193.5l0.9,0.4l-1.8-0.2v-0.6h2.3l6.2,8.5v1.6h-0.5L354.1,193.5
				z M354.4,193.1l0.8,0.6v9.4h-0.8V193.1z M359.4,193.1h3.6v0.6l-1.5,0.2h-0.3l-1.8-0.2V193.1z M361,193.1h0.8v10.1l-0.8-0.8V193.1
				z"/>
			<path d="M230.8,218.5l1.5-0.2h0.3l1.4,0.2v0.6h-3.1V218.5z M230.8,209.7h1.9l0,0.8h-0.2l-1.7-0.2V209.7z M232.1,209.7h0.6
				l0.1,4.2v5.2h-0.7V209.7z M232.1,209.7h1.3l3.4,8.3h-0.5l3.2-8.3h0.8l-3.6,9.4h-0.7L232.1,209.7z M238.4,218.5l1.7-0.2h0.3
				l1.8,0.2v0.6h-3.8V218.5z M239.7,214.8l0-5h1.3c0,1.4,0,2.9,0,4.3v0.7c0,1.4,0,2.9,0,4.3h-1.4
				C239.7,217.7,239.7,216.2,239.7,214.8z M240.3,209.7h2v0.6l-1.8,0.2h-0.1V209.7z"/>
			<path d="M243.5,210.3v-0.6h2v0.8h-0.1L243.5,210.3z M245.5,218.3v0.8h-2v-0.6l1.8-0.2H245.5z M244.8,214.1c0-1.4,0-2.9,0-4.3h1.4
				c0,1.4,0,2.9,0,4.3v0.5c0,1.6,0,3.1,0,4.5h-1.4c0-1.4,0-2.9,0-4.5V214.1z M245.5,218.5h1.8c2.2,0,3.4-1.5,3.4-4
				c0-2.6-1.2-4-3.2-4h-1.9v-0.7h2.2c2.7,0,4.5,1.7,4.5,4.7c0,3-2.1,4.7-4.8,4.7h-1.9V218.5z"/>
			<path d="M256.6,218.5l1.5-0.2h0.3l1.4,0.2v0.6h-3.1V218.5z M256.6,209.7h1.9l0,0.8h-0.2l-1.7-0.2V209.7z M257.9,209.7h0.6
				l0.1,4.2v5.2h-0.7V209.7z M257.9,209.7h1.3l3.4,8.3h-0.5l3.2-8.3h0.8l-3.6,9.4h-0.7L257.9,209.7z M264.3,218.5l1.7-0.2h0.3
				l1.8,0.2v0.6h-3.8V218.5z M265.5,214.8l0-5h1.3c0,1.4,0,2.9,0,4.3v0.7c0,1.4,0,2.9,0,4.3h-1.4
				C265.5,217.7,265.5,216.2,265.5,214.8z M266.1,209.7h2v0.6l-1.8,0.2h-0.1V209.7z"/>
			<path d="M269.3,210.3v-0.6h4v0.6l-1.8,0.2h-0.3L269.3,210.3z M274.1,218.3c1.6,0,2.4-0.9,2.4-3.4v-5.2h0.7v5.5c0,2.9-1.4,4-3.3,4
				c-2,0-3.4-1.1-3.4-3.7v-1.5c0-1.4,0-2.9,0-4.3h1.4c0,1.4,0,2.9,0,4.3v1.1C271.8,217.6,272.7,218.3,274.1,218.3z M276.6,210.5
				l-1.5-0.2v-0.6h3.4v0.6l-1.5,0.2H276.6z"/>
			<path d="M279.5,210.3v-0.6h2v0.8h-0.1L279.5,210.3z M281.6,218.3l1.8,0.2v0.6h-4v-0.6l1.8-0.2H281.6z M280.8,214.1
				c0-1.4,0-2.9,0-4.3h1.4c0,1.5,0,2.8,0,4.5v0.4c0,1.6,0,3,0,4.5h-1.4c0-1.4,0-2.9,0-4.3V214.1z M281.5,214.1h1.7
				c1.5,0,2.2-0.8,2.2-1.9c0-1.2-0.6-1.8-2.1-1.8h-1.9v-0.7h1.9c2.1,0,3.4,0.9,3.4,2.5c0,1.2-0.9,2.3-2.8,2.4l0-0.1
				c1.1,0.1,1.7,0.6,2.1,1.8l0.7,2.3l-0.5-0.3l1.5,0.2v0.6c-0.3,0.1-0.6,0.1-1,0.1c-0.9,0-1.3-0.2-1.4-0.9l-0.6-2.2
				c-0.3-1.1-0.8-1.3-1.9-1.3h-1.3V214.1z"/>
			<path d="M293.4,216.9c0-0.9-0.5-1.3-1.7-1.8l-0.5-0.2c-1.4-0.6-2.4-1.4-2.4-2.8c0-1.6,1.4-2.6,3.2-2.6c0.9,0,1.7,0.3,2.3,0.7
				l-0.1,1.8h-0.9l-0.4-2.1l0.9,0.5v0.7c-0.7-0.7-1.2-0.9-1.9-0.9c-1.1,0-1.9,0.5-1.9,1.6c0,0.9,0.6,1.4,1.6,1.8l0.6,0.2
				c1.8,0.7,2.6,1.5,2.6,2.9c0,1.7-1.4,2.7-3.3,2.7c-1.1,0-2.1-0.3-2.7-0.7l0.1-2h0.9l0.4,2.2l-0.9-0.4v-0.7
				c0.9,0.6,1.4,0.9,2.3,0.9C292.6,218.6,293.4,218,293.4,216.9z"/>
			<path d="M295.8,210.3v-0.6h4v0.6l-1.8,0.2h-0.3L295.8,210.3z M297.9,218.3l1.8,0.2v0.6h-4v-0.6l1.8-0.2H297.9z M297.1,214.1
				c0-1.4,0-2.9,0-4.3h1.4c0,1.4,0,2.9,0,4.3v0.4c0,1.7,0,3.2,0,4.6h-1.4c0-1.4,0-2.9,0-4.3V214.1z M297.8,214.6V214h5.9v0.7H297.8z
				 M301.6,210.3v-0.6h4v0.6l-1.8,0.2h-0.3L301.6,210.3z M303.8,218.3l1.8,0.2v0.6h-4v-0.6l1.8-0.2H303.8z M303,214.1
				c0-1.4,0-2.9,0-4.3h1.4c0,1.4,0,2.9,0,4.3v0.7c0,1.4,0,2.9,0,4.3h-1.4c0-1.4,0-2.9,0-4.6V214.1z"/>
			<path d="M306.8,210.3v-0.6h4v0.6l-1.8,0.2h-0.3L306.8,210.3z M309,218.3l1.8,0.2v0.6h-4v-0.6l1.8-0.2H309z M308.2,214.1
				c0-1.4,0-2.9,0-4.3h1.4c0,1.4,0,2.9,0,4.3v0.7c0,1.4,0,2.9,0,4.3h-1.4c0-1.4,0-2.9,0-4.3V214.1z"/>
			<path d="M312,210.3v-0.6h2v0.8h-0.1L312,210.3z M314,218.3v0.8h-2v-0.6l1.8-0.2H314z M313.3,214.1c0-1.4,0-2.9,0-4.3h1.4
				c0,1.4,0,2.9,0,4.3v0.5c0,1.6,0,3.1,0,4.5h-1.4c0-1.4,0-2.9,0-4.5V214.1z M314,218.5h1.8c2.2,0,3.4-1.5,3.4-4c0-2.6-1.2-4-3.2-4
				H314v-0.7h2.2c2.7,0,4.5,1.7,4.5,4.7c0,3-2.1,4.7-4.8,4.7H314V218.5z"/>
			<path d="M321.9,210.3v-0.6h4v0.6l-1.8,0.2h-0.3L321.9,210.3z M326.7,218.3c1.6,0,2.4-0.9,2.4-3.4v-5.2h0.7v5.5c0,2.9-1.4,4-3.3,4
				c-2,0-3.4-1.1-3.4-3.7v-1.5c0-1.4,0-2.9,0-4.3h1.4c0,1.4,0,2.9,0,4.3v1.1C324.4,217.6,325.3,218.3,326.7,218.3z M329.2,210.5
				l-1.5-0.2v-0.6h3.4v0.6l-1.5,0.2H329.2z"/>
			<path d="M332.2,210.3v-0.6h4v0.6l-1.8,0.2H334L332.2,210.3z M334.1,218.3v0.8h-2v-0.6l1.8-0.2H334.1z M333.4,209.7h1.4
				c0,1.4,0,2.9,0,4.3v1c0,1.2,0,2.6,0,4.1h-1.4c0-1.4,0-2.9,0-4.3v-0.7C333.5,212.6,333.5,211.2,333.4,209.7z M339.3,216.5
				l-0.1,2.6h-5v-0.7h4.5l-0.8,0.7l0.6-2.6H339.3z"/>
			<path d="M343.8,210.3v-0.6h4v0.6l-1.8,0.2h-0.3L343.8,210.3z M345.9,218.3l1.8,0.2v0.6h-4v-0.6l1.8-0.2H345.9z M345.1,214.1
				c0-1.4,0-2.9,0-4.3h1.4c0,1.4,0,2.9,0,4.3v0.4c0,1.7,0,3.2,0,4.6H345c0-1.4,0-2.9,0-4.3V214.1z M345.7,214.6V214h5.9v0.7H345.7z
				 M349.6,210.3v-0.6h4v0.6l-1.8,0.2h-0.3L349.6,210.3z M351.7,218.3l1.8,0.2v0.6h-4v-0.6l1.8-0.2H351.7z M350.9,214.1
				c0-1.4,0-2.9,0-4.3h1.4c0,1.4,0,2.9,0,4.3v0.7c0,1.4,0,2.9,0,4.3h-1.4c0-1.4,0-2.9,0-4.6V214.1z"/>
			<path d="M354.3,218.5l1.4-0.2h0.3l1.5,0.2v0.6h-3.2V218.5z M358.4,209.7h0.9l3.2,9.4h-1.4l-2.8-8.3l0.3,0l-2.8,8.4h-0.7
				L358.4,209.7z M356.8,215.4h3.8l0.2,0.7h-4.2L356.8,215.4z M359.5,218.5l1.8-0.2h0.3l1.7,0.2v0.6h-3.8V218.5z"/>
			<path d="M372.7,214.4c0,3.1-2.1,4.9-4.3,4.9c-2.2,0-4.3-1.7-4.3-4.9c0-3.1,2.1-4.9,4.3-4.9C370.6,209.5,372.7,211.2,372.7,214.4z
				 M368.4,218.6c1.9,0,2.8-2.1,2.8-4.2c0-2.1-0.8-4.2-2.8-4.2c-1.9,0-2.8,2.1-2.8,4.2C365.7,216.5,366.5,218.6,368.4,218.6z
				 M367.7,219.2v-0.5l1.3,0.2c-0.1,1.6,0.7,2.5,1.9,2.5c0.3,0,0.6,0,1.1-0.2l0.2,0.5c-0.5,0.3-1.2,0.4-1.7,0.4
				C368.7,222.1,367.7,220.8,367.7,219.2z"/>
			<path d="M373.9,210.3v-0.6h4v0.6l-1.8,0.2h-0.3L373.9,210.3z M378.8,218.3c1.6,0,2.4-0.9,2.4-3.4v-5.2h0.7v5.5c0,2.9-1.4,4-3.3,4
				c-2,0-3.4-1.1-3.4-3.7v-1.5c0-1.4,0-2.9,0-4.3h1.4c0,1.4,0,2.9,0,4.3v1.1C376.4,217.6,377.3,218.3,378.8,218.3z M381.3,210.5
				l-1.5-0.2v-0.6h3.4v0.6l-1.5,0.2H381.3z"/>
			<path d="M384.2,210.3v-0.6h2v0.8H386L384.2,210.3z M386.2,218.3v0.8h-2v-0.6l1.8-0.2H386.2z M385.5,214.1c0-1.4,0-2.9,0-4.3h1.4
				c0,1.4,0,2.9,0,4.3v0.5c0,1.6,0,3.1,0,4.5h-1.4c0-1.4,0-2.9,0-4.3V214.1z M390,209.7l0.7,0.7h-4.5v-0.7h5l0.1,2.5h-0.8L390,209.7
				z M389.3,214.7h-3.2V214h3.2V214.7z M391.5,216.6l-0.1,2.5h-5.3v-0.7h4.8l-0.7,0.7l0.4-2.5H391.5z M388.9,214.1l0.2-1.5h0.6v3.3
				h-0.6l-0.2-1.5V214.1z"/>
			<path d="M230.9,226.3v-0.6h2v0.8h-0.1L230.9,226.3z M232.9,234.3v0.8h-2v-0.6l1.8-0.2H232.9z M232.2,230.1c0-1.4,0-2.9,0-4.3h1.4
				c0,1.4,0,2.9,0,4.3v0.5c0,1.6,0,3.1,0,4.5h-1.4c0-1.4,0-2.9,0-4.3V230.1z M232.9,229.9h1.4c1.7,0,2.4-0.5,2.4-1.8
				c0-1.3-0.7-1.7-2.2-1.7h-1.7v-0.7h2.1c1.9,0,3.1,1,3.1,2.3c0,1.1-0.8,2.1-2.6,2.3v-0.1c2.2,0.2,3.1,1.2,3.1,2.4
				c0,1.3-1,2.6-3.7,2.6h-1.9v-0.7h1.5c1.8,0,2.7-0.7,2.7-1.9c0-1.3-0.8-2-2.8-2h-1.4V229.9z"/>
			<path d="M239.1,234.5l1.4-0.2h0.3l1.5,0.2v0.6h-3.2V234.5z M243.3,225.7h0.9l3.2,9.4H246l-2.8-8.3l0.3,0l-2.8,8.4h-0.7
				L243.3,225.7z M241.7,231.4h3.8l0.2,0.7h-4.2L241.7,231.4z M244.4,234.5l1.8-0.2h0.3l1.7,0.2v0.6h-3.8V234.5z"/>
			<path d="M248.9,234.5l1.5-0.2h0.3l1.6,0.2v0.6h-3.4V234.5z M249.8,226.2l0.9,0.3l-1.7-0.2v-0.6h2.2l5.8,7.9v1.5h-0.5L249.8,226.2
				z M250.1,225.7l0.7,0.6v8.8h-0.7V225.7z M254.7,225.7h3.4v0.6l-1.4,0.2h-0.3l-1.7-0.2V225.7z M256.2,225.7h0.7v9.5l-0.7-0.7
				V225.7z"/>
			<path d="M267.1,234.5c-1,0.5-1.9,0.8-3.1,0.8c-2.8,0-4.7-2.1-4.7-4.9c0-2.8,1.9-4.9,4.8-4.9c1.1,0,2,0.2,2.8,0.7l0.1,2h-0.9
				l-0.4-2.1l0.9,0.3v0.8c-0.8-0.7-1.5-1-2.4-1c-1.9,0-3.4,1.5-3.4,4.2c0,2.7,1.3,4.2,3.5,4.2c0.8,0,1.4-0.2,2.2-0.6l-0.7,0.7v-0.8
				c0-1.1,0-2.2,0-3.2h1.4c0,1.1,0,2.1,0,3.2V234.5z M264.3,231.2v-0.6h3.7v0.6l-1.5,0.1h-0.3L264.3,231.2z"/>
			<path d="M268.8,226.3v-0.6h4v0.6l-1.8,0.2h-0.3L268.8,226.3z M270.8,234.3v0.8h-2v-0.6l1.8-0.2H270.8z M270.1,225.7h1.4
				c0,1.4,0,2.9,0,4.3v1c0,1.2,0,2.6,0,4.1h-1.4c0-1.4,0-2.9,0-4.3v-0.7C270.1,228.6,270.1,227.2,270.1,225.7z M275.9,232.5
				l-0.1,2.6h-5v-0.7h4.5l-0.8,0.7l0.6-2.6H275.9z"/>
			<path d="M276.6,234.5l1.4-0.2h0.3l1.5,0.2v0.6h-3.2V234.5z M280.8,225.7h0.9l3.2,9.4h-1.4l-2.8-8.3l0.3,0l-2.8,8.4h-0.7
				L280.8,225.7z M279.1,231.4h3.8l0.2,0.7h-4.2L279.1,231.4z M281.9,234.5l1.8-0.2h0.3l1.7,0.2v0.6h-3.8V234.5z"/>
			<path d="M286.5,226.3v-0.6h2v0.8h-0.1L286.5,226.3z M288.4,234.3v0.8h-2v-0.6l1.8-0.2H288.4z M287.8,230.1c0-1.4,0-2.9,0-4.3h1.4
				c0,1.4,0,2.9,0,4.3v0.5c0,1.6,0,3.1,0,4.5h-1.4c0-1.4,0-2.9,0-4.5V230.1z M288.4,234.5h1.8c2.2,0,3.4-1.5,3.4-4
				c0-2.6-1.2-4-3.2-4h-1.9v-0.7h2.2c2.7,0,4.5,1.7,4.5,4.7c0,3-2.1,4.7-4.8,4.7h-1.9V234.5z"/>
			<path d="M296.4,226.3v-0.6h2v0.8h-0.1L296.4,226.3z M298.4,234.3v0.8h-2v-0.6l1.8-0.2H298.4z M297.7,230.1c0-1.4,0-2.9,0-4.3h1.4
				c0,1.4,0,2.9,0,4.3v0.5c0,1.6,0,3.1,0,4.5h-1.4c0-1.4,0-2.9,0-4.3V230.1z M302.2,225.7l0.7,0.7h-4.5v-0.7h5l0.1,2.5h-0.8
				L302.2,225.7z M301.5,230.7h-3.2V230h3.2V230.7z M303.7,232.6l-0.1,2.5h-5.3v-0.7h4.8l-0.7,0.7l0.4-2.5H303.7z M301.1,230.1
				l0.2-1.5h0.6v3.3h-0.6l-0.2-1.5V230.1z"/>
			<path d="M309.6,232.9c0-0.9-0.5-1.3-1.7-1.8l-0.5-0.2c-1.4-0.6-2.4-1.4-2.4-2.8c0-1.6,1.4-2.6,3.2-2.6c0.9,0,1.7,0.3,2.3,0.7
				l-0.1,1.8h-0.9l-0.4-2.1l0.9,0.5v0.7c-0.7-0.7-1.2-0.9-1.9-0.9c-1.1,0-1.9,0.5-1.9,1.6c0,0.9,0.6,1.4,1.6,1.8l0.6,0.2
				c1.8,0.7,2.6,1.5,2.6,2.9c0,1.7-1.4,2.7-3.3,2.7c-1.1,0-2.1-0.3-2.7-0.7l0.1-2h0.9l0.4,2.2l-0.9-0.4v-0.7
				c0.9,0.6,1.4,0.9,2.3,0.9C308.8,234.6,309.6,234,309.6,232.9z"/>
			<path d="M312,226.3v-0.6h4v0.6l-1.8,0.2h-0.3L312,226.3z M314.1,234.3l1.8,0.2v0.6h-4v-0.6l1.8-0.2H314.1z M313.3,230.1
				c0-1.4,0-2.9,0-4.3h1.4c0,1.4,0,2.9,0,4.3v0.4c0,1.7,0,3.2,0,4.6h-1.4c0-1.4,0-2.9,0-4.3V230.1z M314,230.6V230h5.9v0.7H314z
				 M317.9,226.3v-0.6h4v0.6l-1.8,0.2h-0.3L317.9,226.3z M320,234.3l1.8,0.2v0.6h-4v-0.6l1.8-0.2H320z M319.2,230.1
				c0-1.4,0-2.9,0-4.3h1.4c0,1.4,0,2.9,0,4.3v0.7c0,1.4,0,2.9,0,4.3h-1.4c0-1.4,0-2.9,0-4.6V230.1z"/>
			<path d="M231.8,251.1c0-0.6,0-2.1,0-2.9v-0.7c0-0.8,0-1.2,0-1.8l-1.1-0.1v-0.5l2-0.8l0.2,0.1l0.2,1.6v2.1c0,0.9,0,2.3,0,2.9
				H231.8z M234.1,250.6v0.5h-3.2v-0.5l1.5-0.3h0.3L234.1,250.6z M237.3,246.9v1.3c0,0.9,0,2.3,0,2.9H236c0-0.6,0-2,0-2.9V247
				c0-1.3-0.3-1.7-1.2-1.7c-0.7,0-1.2,0.3-2,1h-0.3v-0.6h0.7l-0.6,0.3c0.7-0.9,1.7-1.6,2.7-1.6C236.7,244.3,237.3,245,237.3,246.9z
				 M236.9,250.3l1.4,0.3v0.5H235v-0.5l1.5-0.3H236.9z M241.5,246.7v1.4c0,0.9,0,2.3,0,2.9h-1.3c0-0.6,0-2,0-2.9V247
				c0-1.3-0.4-1.7-1.2-1.7c-0.6,0-1.2,0.3-2,1h-0.3v-0.5h0.8l-0.6,0.1c0.7-1.1,1.8-1.6,2.8-1.6C240.8,244.3,241.5,245,241.5,246.7z
				 M241.1,250.3l1.4,0.3v0.5h-3.2v-0.5l1.5-0.3H241.1z"/>
			<path d="M245.4,248.6c0,1.2,0.4,1.7,1.1,1.7c0.7,0,1.4-0.4,2.1-1.1h0.3v0.7h-0.7l0.5-0.2c-0.8,1.1-1.7,1.6-2.7,1.6
				c-1.1,0-1.8-0.7-1.8-2.5l0-3.7l0.3,0.3l-1.3-0.3v-0.5l2.1-0.2l0.1,0.1l-0.1,2V248.6z M248.6,251.2l-0.2-1.6l0-4.5l0.3,0.3
				l-1.3-0.3v-0.5l2-0.2l0.1,0.1l0,2v4.2l-0.4-0.4l1.3,0.3v0.5L248.6,251.2z"/>
			<path d="M252.7,248.2v-0.7c0-0.8,0-1.2,0-1.8l-1.1-0.1v-0.5l2-0.8l0.2,0.1l0.2,1.8v2c0,0.9,0,2.3,0,2.9h-1.3
				C252.6,250.5,252.7,249,252.7,248.2z M251.6,250.6l1.5-0.3h0.3l1.5,0.3v0.5h-3.4V250.6z M253.3,246.3h0.8l-0.3,0.1
				c0.4-1.3,1.3-2.1,2.1-2.1c0.4,0,0.8,0.2,1,0.5c0,0.7-0.3,1-0.8,1c-0.3,0-0.6-0.1-0.9-0.4l-0.4-0.3l0.7-0.1
				c-0.8,0.4-1.4,1.1-1.7,2.2l-0.6,0V246.3z"/>
			<path d="M257.7,250.8l-0.1-1.5h0.8l0.4,1.7l-0.7-0.3v-0.5c0.5,0.4,1,0.6,1.7,0.6c1.1,0,1.6-0.4,1.6-1.1c0-0.6-0.4-0.9-1.3-1.2
				l-0.7-0.2c-1-0.4-1.7-0.9-1.7-1.9c0-1,0.9-2,2.4-2c0.8,0,1.4,0.2,2,0.6l-0.1,1.4h-0.7l-0.3-1.4l0.5,0.2v0.4
				c-0.5-0.3-0.9-0.5-1.4-0.5c-0.9,0-1.3,0.4-1.3,1c0,0.6,0.3,0.9,1.3,1.2l0.4,0.2c1.4,0.5,1.9,1.2,1.9,2.1c0,1.1-0.9,2-2.7,2
				C259,251.3,258.4,251.1,257.7,250.8z"/>
			<path d="M264.5,242l-1.1-0.1v-0.5l2.1-0.6l0.2,0.1l-0.1,2v3l0,0.2v2.2c0,0.9,0,2.3,0,2.9h-1.3c0-0.6,0-2.1,0-2.9V242z
				 M266.7,250.6v0.5h-3.2v-0.5l1.5-0.3h0.3L266.7,250.6z M270,246.9v1.3c0,0.9,0,2.3,0,2.9h-1.3c0-0.6,0-2,0-2.9V247
				c0-1.3-0.3-1.7-1.2-1.7c-0.7,0-1.3,0.3-2.1,1h-0.3v-0.7h0.7l-0.6,0.3c0.7-0.9,1.8-1.6,2.8-1.6C269.4,244.3,270,245,270,246.9z
				 M269.6,250.3l1.4,0.3v0.5h-3.2v-0.5l1.5-0.3H269.6z"/>
			<path d="M273,251.1c0-0.6,0-2.1,0-2.9v-0.7c0-0.8,0-1.2,0-1.8l-1.1-0.1v-0.5l2.2-0.8l0.2,0.1l0,1.9v1.8c0,0.9,0,2.3,0,2.9H273z
				 M275.2,250.6v0.5h-3.3v-0.5l1.5-0.3h0.3L275.2,250.6z M272.6,241.8c0-0.5,0.4-0.9,0.9-0.9s0.9,0.4,0.9,0.9
				c0,0.5-0.4,0.9-0.9,0.9S272.6,242.4,272.6,241.8z"/>
			<path d="M279.4,250.5c0.7,0,1.2-0.3,1.8-1.1l0.1,0.4c-0.5,1-1.2,1.6-2.3,1.6c-1.7,0-2.9-1.4-2.9-3.5c0-2.1,1.3-3.6,3-3.6
				c0.8,0,1.5,0.3,2.2,1.4l-0.1,0.4c-0.8-0.8-1.3-1-1.9-1c-1,0-1.9,0.8-1.9,2.7C277.5,249.7,278.3,250.5,279.4,250.5z M283.3,250.6
				v0.5l-2.2,0.1l-0.1-1.4v-4.1l0-0.2V242l-1.2-0.1v-0.5l2.2-0.6l0.2,0.1l-0.1,2v8.3l-0.3-0.7L283.3,250.6z"/>
			<path d="M286,248.6c0,1.2,0.4,1.7,1.1,1.7c0.7,0,1.4-0.4,2.1-1.1h0.3v0.7h-0.7l0.5-0.2c-0.8,1.1-1.7,1.6-2.7,1.6
				c-1.1,0-1.8-0.7-1.8-2.5l0-3.7l0.3,0.3l-1.3-0.3v-0.5l2.1-0.2l0.1,0.1l-0.1,2V248.6z M289.3,251.2l-0.2-1.6l0-4.5l0.3,0.3
				l-1.3-0.3v-0.5l2-0.2l0.1,0.1l0,2v4.2l-0.4-0.4l1.3,0.3v0.5L289.3,251.2z"/>
			<path d="M294.3,240.8l0.2,0.1l-0.1,2v5.3c0,1,0,2,0,2.9h-1.3c0-1,0-2,0-2.9V242l-1.1-0.1v-0.5L294.3,240.8z M295.5,250.6v0.5
				h-3.5v-0.5l1.6-0.3h0.3L295.5,250.6z"/>
			<path d="M296.6,250.2c0.7-0.7,1.5-1.5,2.1-2.1c1.4-1.5,2-2.6,2-3.7c0-1.1-0.7-1.9-1.7-1.9c-0.3,0-0.9,0.1-1.4,0.3l0.8-0.5
				l-0.3,1.2c-0.2,0.7-0.4,1-0.8,1c-0.3,0-0.6-0.2-0.7-0.5c0.1-1.5,1.4-2.2,2.8-2.2c1.8,0,2.6,1,2.6,2.4c0,1.2-0.6,2.2-2.8,4.3
				c-0.5,0.4-1.1,1.1-1.8,1.7l-0.2-0.3h5.1v1.2h-5.7V250.2z"/>
			<path d="M306.4,246.7c0.8,0,1.4-0.3,1.9-1l0.2,0.1c-0.5,1.1-1.4,1.7-2.5,1.7c-1.5,0-2.7-1-2.7-2.7c0-1.8,1.2-2.9,3-2.9
				c1.8,0,2.9,1.4,2.9,3.6c0,2.7-1.5,5-5.1,5.9l-0.1-0.5c3-1,4-2.5,4-5.1c0-2.3-0.7-3.2-1.7-3.2c-0.9,0-1.7,0.7-1.7,2.1
				C304.5,246.1,305.4,246.7,306.4,246.7z"/>
			<path d="M311.3,248.1c0,3.1,2.1,4.6,4.5,4.6c0.9,0,1.6-0.1,2.2-0.4l0.2,0.4c-0.8,0.4-1.8,0.6-2.7,0.6c-2.8,0-5.1-1.7-5.1-5
				c0-3.4,2.7-6.2,6.2-6.2c2.8,0,4.6,1.9,4.6,4.5c0,2.7-1.8,3.9-3.1,3.9c-0.9,0-1.4-0.6-1.5-1.3l-0.1-0.2l0.8-4.1l0.7-0.4l0.3,0.2
				l-0.8,4c-0.1,0.7,0.1,1.1,0.8,1.1c1,0,2-1,2-3.4c0-2.4-1.6-3.8-3.8-3.8C313.4,242.6,311.3,245.3,311.3,248.1z M317,248.5l0.1,0.2
				c-0.8,1-1.5,1.8-2.5,1.8c-0.8,0-1.5-0.5-1.5-1.8c0-1.2,0.5-2.2,1.2-3c0.6-0.7,1.4-1.2,2.1-1.2c0.5,0,0.9,0.2,1.4,0.9l-0.4,0.7
				c-0.4-0.6-0.7-0.9-1.1-0.9c-0.4,0-1,0.2-1.4,0.8c-0.4,0.6-0.8,1.3-0.8,2.3c0,0.9,0.3,1.3,1,1.3
				C315.6,249.7,316.1,249.4,317,248.5z"/>
			<path d="M327.4,252.4c0-0.6-0.4-1.1-1.4-1.1h-1.6c-0.3,0-0.5,0-0.7-0.1v0c-0.7-0.2-1.1-0.5-1.1-1.1c0-0.5,0.3-1,1.3-1.9l0.3,0.2
				c-0.4,0.4-0.6,0.7-0.6,1.2c0,0.4,0.2,0.6,0.8,0.6h1.8c1.5,0,2.3,0.7,2.3,1.8c0,1.2-1.2,2.4-3.5,2.4c-2,0-2.9-0.7-2.9-1.7
				c0-0.7,0.4-1.2,1.8-1.8l0.1,0.1c-0.5,0.5-0.8,0.9-0.8,1.5c0,0.9,0.7,1.3,1.8,1.3C326.6,253.8,327.4,253.2,327.4,252.4z
				 M324.9,244.3c1.5,0,2.5,0.8,2.5,2.3c0,1.5-1.1,2.3-2.5,2.3c-1.5,0-2.5-0.8-2.5-2.3C322.4,245.1,323.5,244.3,324.9,244.3z
				 M323.5,246.6c0,1,0.5,1.7,1.3,1.7c0.9,0,1.4-0.7,1.4-1.8c0-1-0.5-1.7-1.4-1.7C324.1,244.9,323.5,245.6,323.5,246.6z
				 M328.3,244.3l0.2,0.1v0.9h-2.1v-0.4L328.3,244.3z"/>
			<path d="M330.4,251.1c0-0.6,0-2.1,0-2.9v-0.7c0-0.8,0-1.2,0-1.8l-1.1-0.1v-0.5l2-0.8l0.2,0.1l0.2,1.6v2.1c0,0.9,0,2.3,0,2.9
				H330.4z M332.6,250.6v0.5h-3.2v-0.5l1.5-0.3h0.3L332.6,250.6z M335.8,246.9v1.3c0,0.9,0,2.3,0,2.9h-1.3c0-0.6,0-2,0-2.9V247
				c0-1.3-0.3-1.7-1.2-1.7c-0.7,0-1.2,0.3-2,1h-0.3v-0.6h0.7l-0.6,0.3c0.7-0.9,1.7-1.6,2.7-1.6C335.3,244.3,335.8,245,335.8,246.9z
				 M335.4,250.3l1.4,0.3v0.5h-3.2v-0.5l1.5-0.3H335.4z M340,246.7v1.4c0,0.9,0,2.3,0,2.9h-1.3c0-0.6,0-2,0-2.9V247
				c0-1.3-0.4-1.7-1.2-1.7c-0.6,0-1.2,0.3-2,1h-0.3v-0.5h0.8l-0.6,0.1c0.7-1.1,1.8-1.6,2.8-1.6C339.4,244.3,340,245,340,246.7z
				 M339.6,250.3l1.4,0.3v0.5h-3.2v-0.5l1.5-0.3H339.6z"/>
			<path d="M344.4,247.4c0.6-0.2,1.5-0.5,2.2-0.6v0.5c-0.6,0.1-1.5,0.4-1.9,0.6c-1.2,0.5-1.4,1-1.4,1.4c0,0.7,0.5,1,1.1,1
				c0.5,0,0.8-0.2,1.6-0.8l0.3-0.2l0.2,0.3l-0.4,0.4c-0.8,0.8-1.3,1.2-2.2,1.2c-1,0-1.9-0.6-1.9-1.8
				C342.1,248.8,342.5,248.1,344.4,247.4z M346,249.8v-3.2c0-1.4-0.4-1.7-1.3-1.7c-0.3,0-0.7,0-1.3,0.2l0.6-0.4l-0.3,1.2
				c-0.1,0.4-0.3,0.7-0.7,0.7c-0.4,0-0.6-0.2-0.6-0.6c0.3-1.1,1.3-1.7,2.7-1.7c1.5,0,2.2,0.7,2.2,2.4v3c0,0.6,0.2,0.8,0.5,0.8
				c0.2,0,0.4-0.1,0.5-0.3l0.3,0.3c-0.3,0.5-0.7,0.7-1.2,0.7C346.5,251.3,346,250.7,346,249.8z"/>
			<path d="M350.1,251.1c0-0.6,0-2.1,0-2.9v-0.7c0-0.8,0-1.2,0-1.8l-1.1-0.1v-0.5l2.2-0.8l0.2,0.1l0,1.9v1.8c0,0.9,0,2.3,0,2.9
				H350.1z M352.3,250.6v0.5h-3.3v-0.5l1.5-0.3h0.3L352.3,250.6z M349.8,241.8c0-0.5,0.4-0.9,0.9-0.9s0.9,0.4,0.9,0.9
				c0,0.5-0.4,0.9-0.9,0.9S349.8,242.4,349.8,241.8z"/>
			<path d="M355.3,240.8l0.2,0.1l-0.1,2v5.3c0,1,0,2,0,2.9h-1.3c0-1,0-2,0-2.9V242l-1.1-0.1v-0.5L355.3,240.8z M356.6,250.6v0.5
				h-3.5v-0.5l1.6-0.3h0.3L356.6,250.6z"/>
			<path d="M358,250.3c0-0.6,0.4-1,1-1s1,0.5,1,1c0,0.5-0.4,1-1,1S358,250.8,358,250.3z"/>
			<path d="M362.9,247.7c0,1.8,0.9,2.7,2.2,2.7c0.8,0,1.5-0.4,1.9-1.1l0.3,0.2c-0.4,1.2-1.3,1.8-2.6,1.8c-1.9,0-3.1-1.3-3.1-3.5
				c0-2.2,1.5-3.5,3.2-3.5c1.3,0,2.3,0.8,2.5,1.8c-0.1,0.4-0.3,0.5-0.6,0.5c-0.5,0-0.7-0.3-0.8-0.7l-0.3-1.2l0.7,0.5
				c-0.5-0.2-0.9-0.3-1.3-0.3C363.8,244.9,362.9,245.9,362.9,247.7z"/>
			<path d="M368.6,247.8c0-2.3,1.6-3.5,3.2-3.5c1.6,0,3.2,1.2,3.2,3.5c0,2.3-1.6,3.5-3.2,3.5C370.1,251.3,368.6,250.1,368.6,247.8z
				 M373.7,247.8c0-1.9-0.7-2.9-1.9-2.9c-1.2,0-1.9,1-1.9,2.9c0,1.9,0.7,2.8,1.9,2.8C373,250.7,373.7,249.7,373.7,247.8z"/>
			<path d="M377.2,251.1c0-0.6,0-2.1,0-2.9v-0.7c0-0.8,0-1.2,0-1.8l-1.1-0.1v-0.5l2-0.8l0.2,0.1l0.2,1.6v2.1c0,0.9,0,2.3,0,2.9
				H377.2z M379.4,250.6v0.5h-3.2v-0.5l1.5-0.3h0.3L379.4,250.6z M382.6,246.9v1.3c0,0.9,0,2.3,0,2.9h-1.3c0-0.6,0-2,0-2.9V247
				c0-1.3-0.3-1.7-1.2-1.7c-0.7,0-1.2,0.3-2,1H378v-0.6h0.7l-0.6,0.3c0.7-0.9,1.7-1.6,2.7-1.6C382.1,244.3,382.6,245,382.6,246.9z
				 M382.2,250.3l1.4,0.3v0.5h-3.2v-0.5l1.5-0.3H382.2z M386.8,246.7v1.4c0,0.9,0,2.3,0,2.9h-1.3c0-0.6,0-2,0-2.9V247
				c0-1.3-0.4-1.7-1.2-1.7c-0.6,0-1.2,0.3-2,1h-0.3v-0.5h0.8l-0.6,0.1c0.7-1.1,1.8-1.6,2.8-1.6C386.2,244.3,386.8,245,386.8,246.7z
				 M386.4,250.3l1.4,0.3v0.5h-3.2v-0.5l1.5-0.3H386.4z"/>
			<path d="M230.7,262.9v-0.8h6.6v0.8H230.7z M233.5,259h0.9v7h-0.9V259z"/>
			<path d="M240.5,262.6l0.6,0.2c-1.1,0.6-1.7,1.2-1.7,2.2c0,1,0.7,1.7,1.8,1.7c1,0,1.6-0.7,1.6-1.7c0-0.8-0.5-1.3-2.2-2.1
				c-1.5-0.7-2.1-1.6-2.1-2.7c0-1.5,1.2-2.3,2.6-2.3c1.5,0,2.4,0.9,2.4,2.2c0,0.7-0.4,1.6-2,2.4l-0.5-0.2c1.1-0.8,1.5-1.3,1.5-2.2
				c0-0.8-0.5-1.5-1.4-1.5c-0.8,0-1.5,0.5-1.5,1.4c0,0.8,0.4,1.5,2,2.2c1.6,0.7,2.3,1.5,2.3,2.8c0,1.4-1.2,2.4-2.9,2.4
				c-1.7,0-2.9-0.8-2.9-2.3C238.3,263.9,239.1,263.2,240.5,262.6z"/>
			<path d="M247.5,262.6l0.6,0.2c-1.1,0.6-1.7,1.2-1.7,2.2c0,1,0.7,1.7,1.8,1.7c1,0,1.6-0.7,1.6-1.7c0-0.8-0.5-1.3-2.2-2.1
				c-1.5-0.7-2.1-1.6-2.1-2.7c0-1.5,1.2-2.3,2.6-2.3c1.5,0,2.4,0.9,2.4,2.2c0,0.7-0.4,1.6-2,2.4l-0.5-0.2c1.1-0.8,1.5-1.3,1.5-2.2
				c0-0.8-0.5-1.5-1.4-1.5c-0.8,0-1.5,0.5-1.5,1.4c0,0.8,0.4,1.5,2,2.2c1.6,0.7,2.3,1.5,2.3,2.8c0,1.4-1.2,2.4-2.9,2.4
				c-1.7,0-2.9-0.8-2.9-2.3C245.3,263.9,246.1,263.2,247.5,262.6z"/>
			<path d="M258.1,262.6c0,3.5-1.5,4.7-2.9,4.7c-1.5,0-2.9-1.2-2.9-4.7c0-3.5,1.4-4.7,2.9-4.7C256.7,257.9,258.1,259.1,258.1,262.6z
				 M255.2,266.7c0.8,0,1.6-0.8,1.6-4.1c0-3.3-0.8-4.1-1.6-4.1c-0.9,0-1.7,0.8-1.7,4.1C253.6,265.9,254.3,266.7,255.2,266.7z"/>
			<path d="M268.2,266.6v0.5H263v-0.5l2-0.3h1.2L268.2,266.6z M266,258l0.2,0.1l-0.1,2v4.1c0,1,0,2,0,3h-1.3c0-1,0-2,0-3v-5
				l-1.8,0.2v-0.6L266,258z"/>
			<path d="M274.7,258.8l0.2,0.4h-5.3v-1.2h5.8v0.7l-3.3,8.3h-1.2l-0.1-0.1L274.7,258.8z"/>
			<path d="M281.7,258.8l0.2,0.4h-5.3v-1.2h5.8v0.7l-3.3,8.3h-1.2l-0.1-0.1L281.7,258.8z"/>
			<path d="M283.6,266.2c0.7-0.7,1.5-1.5,2.1-2.1c1.4-1.5,2-2.6,2-3.7c0-1.1-0.7-1.9-1.7-1.9c-0.3,0-0.9,0.1-1.4,0.3l0.8-0.5
				l-0.3,1.2c-0.2,0.7-0.4,1-0.8,1c-0.3,0-0.6-0.2-0.7-0.5c0.1-1.5,1.4-2.2,2.8-2.2c1.8,0,2.6,1,2.6,2.4c0,1.2-0.6,2.2-2.8,4.3
				c-0.5,0.4-1.1,1.1-1.8,1.7l-0.2-0.3h5.1v1.2h-5.7V266.2z"/>
			<path d="M290.6,266.2c0.7-0.7,1.5-1.5,2.1-2.1c1.4-1.5,2-2.6,2-3.7c0-1.1-0.7-1.9-1.7-1.9c-0.3,0-0.9,0.1-1.4,0.3l0.8-0.5
				l-0.3,1.2c-0.2,0.7-0.4,1-0.8,1c-0.3,0-0.6-0.2-0.7-0.5c0.1-1.5,1.4-2.2,2.8-2.2c1.8,0,2.6,1,2.6,2.4c0,1.2-0.6,2.2-2.8,4.3
				c-0.5,0.4-1.1,1.1-1.8,1.7l-0.2-0.3h5.1v1.2h-5.7V266.2z"/>
			<path d="M302.2,264.5c0-1.5-0.7-2.1-1.6-2.1c-0.6,0-1.4,0.2-1.9,0.8l-0.2-0.2c0.6-1,1.5-1.5,2.5-1.5c1.5,0,2.6,1.1,2.6,2.7
				c0,2-1.2,3-2.9,3c-1.9,0-3-1.5-3-4c0-2.7,1.9-5,5.4-5.4l0.1,0.4c-3,0.7-4.2,2.2-4.2,4.8c0,2.4,0.7,3.5,1.8,3.5
				C301.5,266.7,302.2,266,302.2,264.5z"/>
			<path d="M309.2,264.5c0-1.5-0.7-2.1-1.6-2.1c-0.6,0-1.4,0.2-1.9,0.8l-0.2-0.2c0.6-1,1.5-1.5,2.5-1.5c1.5,0,2.6,1.1,2.6,2.7
				c0,2-1.2,3-2.9,3c-1.9,0-3-1.5-3-4c0-2.7,1.9-5,5.4-5.4l0.1,0.4c-3,0.7-4.2,2.2-4.2,4.8c0,2.4,0.7,3.5,1.8,3.5
				C308.5,266.7,309.2,266,309.2,264.5z"/>
			<path d="M311.6,266.2c0.7-0.7,1.5-1.5,2.1-2.1c1.4-1.5,2-2.6,2-3.7c0-1.1-0.7-1.9-1.7-1.9c-0.3,0-0.9,0.1-1.4,0.3l0.8-0.5
				l-0.3,1.2c-0.2,0.7-0.4,1-0.8,1c-0.3,0-0.6-0.2-0.7-0.5c0.1-1.5,1.4-2.2,2.8-2.2c1.8,0,2.6,1,2.6,2.4c0,1.2-0.6,2.2-2.8,4.3
				c-0.5,0.4-1.1,1.1-1.8,1.7l-0.2-0.3h5.2v1.2h-5.7V266.2z"/>
			<path d="M320.9,262c1.3,0,2-0.7,2-1.9c0-1-0.6-1.6-1.7-1.6c-0.3,0-0.7,0-1.2,0.2l0.6-0.4l-0.3,1c-0.2,0.6-0.3,0.9-0.8,0.9
				c-0.3,0-0.6-0.1-0.7-0.5c0.3-1.2,1.3-1.8,2.6-1.8c1.6,0,2.7,0.9,2.7,2.2c0,1.2-0.9,2.1-2.4,2.4v-0.2c1.8,0.2,2.7,1.1,2.7,2.4
				c0,1.5-1.3,2.7-3.1,2.7c-1.4,0-2.4-0.6-2.7-2c0.2-0.3,0.4-0.5,0.7-0.5c0.5,0,0.6,0.3,0.8,1l0.3,1.1l-0.6-0.5
				c0.5,0.2,0.9,0.2,1.2,0.2c1.4,0,2.1-0.7,2.1-2c0-1.2-0.7-2-2.1-2h-0.7V262H320.9z"/>
			<path d="M330.2,264.5c0-1.5-0.7-2.1-1.6-2.1c-0.6,0-1.4,0.2-1.9,0.8l-0.2-0.2c0.6-1,1.5-1.5,2.5-1.5c1.5,0,2.6,1.1,2.6,2.7
				c0,2-1.2,3-2.9,3c-1.9,0-3-1.5-3-4c0-2.7,1.9-5,5.4-5.4l0.1,0.4c-3,0.7-4.2,2.2-4.2,4.8c0,2.4,0.7,3.5,1.8,3.5
				C329.5,266.7,330.2,266,330.2,264.5z"/>
		</g>
	</g>
</g>
<image style="overflow:visible;" width="411" height="196" xlink:href="../Labib/Signature- Labib.png"  transform="matrix(0.2634 0 0 0.2241 449.5699 703.0213)">
</image>
<rect x="365" y="752.9" class="st36" width="202.5" height="35.1"/>
<text transform="matrix(1 0 0 1 373.4805 764.7842)"><tspan x="0" y="0" class="st37 st39 st40">MD MURSHIDUL HAQUE</tspan><tspan x="99.5" y="12" class="st41 st31">Web Developer</tspan></text>
<line class="st42" x1="25.2" y1="702.8" x2="570.5" y2="703"/>
<g>
	<path class="st29" d="M281.7,688.6H47.2c-4.6,0-8.3-3.7-8.3-8.3v-53c0-4.6,3.7-8.3,8.3-8.3h234.5c4.6,0,8.3,3.7,8.3,8.3v53
		C290.1,684.9,286.3,688.6,281.7,688.6z"/>
	
		<image style="overflow:visible;" width="1022" height="163" xlink:href="../../../Desktop/Payments logo.png"  transform="matrix(0.2338 0 0 0.227 46.8369 645.8033)">
	</image>
	<rect x="49.9" y="622.7" class="st36" width="225.3" height="22.1"/>
	<text transform="matrix(1.03 0 0 1 49.9248 638.1113)" class="st43 st44">Payment Method</text>
</g>
<rect x="34.6" y="708.6" class="st45" width="173.6" height="21.4"/>
<text transform="matrix(1 0 0 1 34.5532 720.7998)" class="st43 st39">Terms and Conditions</text>
<rect x="34.5" y="732.1" class="st45" width="255.1" height="49.5"/>
<text transform="matrix(1 0 0 1 34.5317 741.2275)"><tspan x="0" y="0" class="st46 st47 st48">Please send 50% of the payment before the</tspan><tspan x="0" y="15.6" class="st46 st47 st48">project starts and 50% of the payment after the</tspan><tspan x="0" y="31.2" class="st46 st47 st48">project is complete,Thank You.</tspan></text>
<line class="st49" x1="35.7" y1="725" x2="290.1" y2="725"/>
<line class="st29" x1="505.1" y1="342.4" x2="504.1" y2="532.5"/>
<line class="st29" x1="188" y1="310.4" x2="186.9" y2="532.5"/>
<rect x="504.5" y="318.5" class="st36" width="64.5" height="24.7"/>
<text transform="matrix(1 0 0 1 512.2695 332.8305)" class="st50 st51 st52">Price</text>
<rect x="314" y="318.5" class="st36" width="64.5" height="24.7"/>
<text transform="matrix(1 0 0 1 323.444 332.8305)" class="st50 st51 st52">Task</text>
<rect x="68.8" y="318.5" class="st36" width="77.7" height="24.7"/>
<text transform="matrix(1 0 0 1 72.0568 332.8305)" class="st50 st51 st52">Service</text>
<text transform="matrix(1 0 0 1 431.6104 550.6602)" class="st30 st53">Sub Total: </text>
<text transform="matrix(1 0 0 1 417.6882 576.1071)" class="st30 st53">(-) Discount:</text>
<text transform="matrix(1 0 0 1 468.2928 595.0478)" class="st30 st53">Paid:</text>
<g>
	<path class="st54" d="M567.9,654.2H399.2c-1,0-1.8-0.8-1.8-1.8v-31.6c0-1,0.8-1.8,1.8-1.8h168.8c1,0,1.8,0.8,1.8,1.8v31.6
		C569.7,653.4,568.9,654.2,567.9,654.2z"/>
	<text transform="matrix(1 0 0 1 405.3867 642.9114)" class="st55 st30 st56">Due: $</text>
</g>
<g>
	<g>
		<defs>
			<rect id="SVGID_57_" x="35.3" y="0.2" width="190.2" height="157.3"/>
		</defs>
		<clipPath id="SVGID_58_">
			<use xlink:href="#SVGID_57_"  style="overflow:visible;"/>
		</clipPath>
		<rect x="35.3" y="0.2" class="st57" width="189.5" height="157.3"/>
	</g>
	
		<image style="overflow:visible;" width="500" height="500" xlink:href="../../../Desktop/Expert Solution Black.png"  transform="matrix(0.3329 0 0 0.3146 47.1277 0.1687)">
	</image>
	<g>
		<defs>
			<rect id="SVGID_59_" x="35.1" y="157.5" width="190.4" height="111.5"/>
		</defs>
		<clipPath id="SVGID_60_">
			<use xlink:href="#SVGID_59_"  style="overflow:visible;"/>
		</clipPath>
		<g class="st58">
			<defs>
				<polyline id="SVGID_61_" points="35.4,268.9 35.4,157.5 225.6,157.5 35.4,268.9 				"/>
			</defs>
			<use xlink:href="#SVGID_61_"  style="overflow:visible;"/>
			<clipPath id="SVGID_62_">
				<use xlink:href="#SVGID_61_"  style="overflow:visible;"/>
			</clipPath>
			<rect x="35.4" y="157.5" class="st59" width="190.1" height="111.5"/>
		</g>
	</g>
</g>
</svg>
